<svg xmlns="http://www.w3.org/2000/svg" width="1200" height="300" viewBox="0 0 1200 300" role="img" aria-label="nullcove - Software Architect / Cybersecurity Enthusiast / Automation Wizard">
  <defs>
    <linearGradient id="bg" x1="0" y1="0" x2="1" y2="1">
      <stop offset="0" stop-color="#f8fbff"/><stop offset="0.55" stop-color="#eaf1fb"/><stop offset="1" stop-color="#eaf1fb"/>
    </linearGradient>
    <radialGradient id="g1" cx="0.14" cy="0.1" r="0.66">
      <stop offset="0" stop-color="#0284c7" stop-opacity="0.20"/><stop offset="1" stop-color="#0284c7" stop-opacity="0"/>
    </radialGradient>
    <radialGradient id="g2" cx="0.9" cy="0.95" r="0.7">
      <stop offset="0" stop-color="#4f46e5" stop-opacity="0.20"/><stop offset="1" stop-color="#4f46e5" stop-opacity="0"/>
    </radialGradient>
    <linearGradient id="mark" x1="0" y1="0" x2="1" y2="1">
      <stop offset="0" stop-color="#0284c7"/><stop offset="1" stop-color="#4f46e5"/>
    </linearGradient>
    <pattern id="grid" width="30" height="30" patternUnits="userSpaceOnUse">
      <path d="M30 0H0V30" fill="none" stroke="#c9dcf0" stroke-opacity="0.055" stroke-width="1"/>
    </pattern>
  </defs>

  <rect width="1200" height="300" fill="url(#bg)"/>
  <rect width="1200" height="300" fill="url(#grid)"/>
  <rect width="1200" height="300" fill="url(#g1)"/>
  <rect width="1200" height="300" fill="url(#g2)"/>

  <g transform="translate(80,80)">
    <rect width="140" height="140" rx="34" fill="#ffffff" stroke="#ffffff" stroke-width="1.5"/>
    <g transform="translate(20,20) scale(1.0)"><circle cx="50" cy="50" r="28" fill="none" stroke="#0284c7" stroke-width="7"/><path d="M50 34 L54 46 L66 50 L54 54 L50 66 L46 54 L34 50 L46 46 Z" fill="#0284c7" stroke="none"/></g>
  </g>

  <text x="258" y="140" font-family="Segoe UI, system-ui, sans-serif" font-size="52" font-weight="700" letter-spacing="1.5" fill="#0b1626">nullcove</text>
  <rect x="260" y="166" width="640" height="1.6" fill="#c9dcf0"/>
  <text x="260" y="196" font-family="Segoe UI, system-ui, sans-serif" font-size="16.5" fill="#5c7594">Software Architect / Cybersecurity Enthusiast / Automation Wizard</text>

  <g font-family="Segoe UI, system-ui, sans-serif" font-size="13" font-weight="600" fill="#12406e">
    <rect x="260" y="232" width="174" height="32" rx="16" fill="#ffffff" stroke="#bcd4ee"/>
    <text x="347" y="253" text-anchor="middle">Software Architect</text>
    <rect x="446" y="232" width="133" height="32" rx="16" fill="#ffffff" stroke="#bcd4ee"/>
    <text x="512" y="253" text-anchor="middle">Cybersecurity</text>
    <rect x="590" y="232" width="108" height="32" rx="16" fill="#ffffff" stroke="#bcd4ee"/>
    <text x="644" y="253" text-anchor="middle">Automation</text>
    <rect x="710" y="232" width="92" height="32" rx="16" fill="#ffffff" stroke="#bcd4ee"/>
    <text x="756" y="253" text-anchor="middle">Security</text>
  </g>

  <g transform="translate(940,72)">
    <rect x="0" y="0" width="180" height="34" rx="17" fill="#ffffff" stroke="#bcd4ee"/>
    <circle cx="24" cy="17" r="5" fill="#0284c7"/>
    <text x="40" y="22" font-family="Segoe UI, system-ui, sans-serif" font-size="12.5" font-weight="600" fill="#12406e">nullcove</text>
  </g>

  <rect x="0" y="297" width="1200" height="3" fill="url(#mark)" opacity="0.55"/>
</svg>